<?xml version="1.0" encoding="UTF-8"?>
<svg id="Ebene_2" data-name="Ebene 2" xmlns="http://www.w3.org/2000/svg" viewBox="0 0 27.2 24.31">
  <defs>
    <style>
      .cls-1 {
        fill: #231f20;
      }
    </style>
  </defs>
  <g id="Icons">
    <g id="Anonymous_Forum_new" data-name="Anonymous Forum_new">
      <g id="Ebene_3" data-name="Ebene 3">
        <polygon class="cls-1" points="1.99 1.99 1.99 14.94 4.91 14.94 4.93 19.32 8.31 15.74 8.31 18.64 2.96 24.31 2.92 16.93 0 16.93 0 0 22.68 0 22.68 1.99 1.99 1.99"/>
      </g>
      <path class="cls-1" d="m22.68,13.83v-2.29c.59-.22,1-.69,1-1.24s-.41-1.01-1-1.23v-2.88c1.25-.03,2.78.01,4.5.17.23,4.75-1.6,6.78-4.5,7.47Z"/>
      <path class="cls-1" d="m14.18,13.78v.28s-.04-.01-.06-.01c-.52-.06-1.02-.14-1.48-.27h1.54Z"/>
      <path class="cls-1" d="m27.18,6.36c-1.72-.16-3.25-.2-4.5-.17-1.65.01-2.8.11-3.25.17-.75.1-1.33.62-1.33.62-.12.08-.24.15-.35.22-.1-.07-.22-.14-.34-.22,0,0-.59-.52-1.33-.62-.81-.1-3.77-.36-7.75,0-.22,4.65,1.51,6.69,4.31,7.42.46.13.96.21,1.48.27.02,0,.04,0,.06.01.68.08,2.03.67,3,1.14.21.11.41.2.57.28.17-.08.37-.17.58-.28,1-.48,2.37-1.09,3.06-1.15.45-.05.88-.12,1.29-.22,2.9-.69,4.73-2.72,4.5-7.47Zm-13.02,5.33c-1,0-1.81-.62-1.81-1.39s.81-1.38,1.81-1.38,1.8.62,1.8,1.38-.8,1.39-1.8,1.39Zm8.52-.15c-.24.1-.51.15-.8.15-1,0-1.81-.62-1.81-1.39s.81-1.38,1.81-1.38c.29,0,.56.05.8.15.59.22,1,.69,1,1.23s-.41,1.02-1,1.24Z"/>
    </g>
  </g>
</svg>